HIERARCHY
ROOT ui
{
	 OFFSET 0 0 0
	 CHANNELS 3 XPosition YPosition Z Position
	 EndSite
	 {
	 OFFSET 0 -1 0
	 }
}
ROOT li
{
	 OFFSET 0 0 0
	 CHANNELS 3 XPosition YPosition Z Position
	 EndSite
	 {
	 OFFSET 0 -1 0
	 }
}
ROOT ul
{
	 OFFSET 0 0 0
	 CHANNELS 3 XPosition YPosition Z Position
	 EndSite
	 {
	 OFFSET 0 -1 0
	 }
}
ROOT ll
{
	 OFFSET 0 0 0
	 CHANNELS 3 XPosition YPosition Z Position
	 EndSite
	 {
	 OFFSET 0 -1 0
	 }
}
ROOT tt
{
	 OFFSET 0 0 0
	 CHANNELS 3 XPosition YPosition Z Position
	 EndSite
	 {
	 OFFSET 0 -1 0
	 }
}
ROOT tb
{
	 OFFSET 0 0 0
	 CHANNELS 3 XPosition YPosition Z Position
	 EndSite
	 {
	 OFFSET 0 -1 0
	 }
}
ROOT td
{
	 OFFSET 0 0 0
	 CHANNELS 3 XPosition YPosition Z Position
	 EndSite
	 {
	 OFFSET 0 -1 0
	 }
}
ROOT v
{
	 OFFSET 0 0 0
	 CHANNELS 3 XPosition YPosition Z Position
	 EndSite
	 {
	 OFFSET 0 -1 0
	 }
}
ROOT bn
{
	 OFFSET 0 0 0
	 CHANNELS 3 XPosition YPosition Z Position
	 EndSite
	 {
	 OFFSET 0 -1 0
	 }
}
MOTION
Frames: 16
Frame Time: 0.002
-0.0014737379550933839	-0.005044365882873535	0		0.5089554138183594	-2.450302490234375	0		-1.0428193359375	-0.1335760498046875	0		-0.5750459594726562	-2.5444033203125	0		1.7853544921875	-1.22407958984375	0		3.19877734375	-0.4932601318359375	0		4.67939794921875	0.25688436889648436	0		5.93256201171875	0.357685791015625	0		-0.47477313232421875	5.83301171875	0		
-0.014076017379760742	9.01157021522522E-4	0		0.5352859497070312	-2.452745361328125	0		-1.0455218505859376	-0.13773703002929688	0		-0.5787334594726562	-2.54855126953125	0		1.7856988525390625	-1.2242532958984376	0		3.20387548828125	-0.5174741821289063	0		4.6736630859375	0.24978927612304688	0		5.93992724609375	0.35552627563476563	0		-0.47447268676757814	5.83282421875	0		
-0.010721819877624512	0.0036831529140472414	0		0.49460238647460936	-2.453520751953125	0		-1.113234375	-0.1412410430908203	0		-0.5963980712890625	-2.54755810546875	0		1.8009117431640624	-1.235591064453125	0		3.23181640625	-0.5559411010742188	0		4.68369482421875	0.22050296020507812	0		5.940158203125	0.3552025146484375	0		-0.47118939208984373	5.8286064453125	0		
0.0035227880477905274	-0.002642775058746338	0		0.5508807373046875	-2.4552724609375	0		-1.0308734130859376	-0.13624508666992188	0		-0.5591192626953125	-2.5491123046875	0		1.806270263671875	-1.2298377685546875	0		3.2492587890625	-0.5423172607421874	0		4.69094140625	0.21421989440917968	0		5.94401416015625	0.3720331420898437	0		-0.42268096923828125	5.84493994140625	0		
-0.010133180618286133	0.003319451093673706	0		0.48724932861328124	-2.443813232421875	0		-1.038662109375	-0.14333065795898436	0		-0.5758447875976562	-2.547113037109375	0		1.801478759765625	-1.235986328125	0		3.242173095703125	-0.5784608764648438	0		4.68310595703125	0.2020684356689453	0		5.9292451171875	0.3737007141113281	0		-0.4714891357421875	5.8292607421875	0		
-0.009875722885131836	0.003152875900268555	0		0.5373922119140625	-2.4514921875	0		-1.0384071044921874	-0.14347982788085936	0		-0.579670654296875	-2.5512294921875	0		1.80171533203125	-1.23618359375	0		3.253369873046875	-0.583793212890625	0		4.695083984375	0.17370278930664063	0		5.9336357421875	0.355833984375	0		-0.471133056640625	5.82910205078125	0		
-0.0027667019367218016	-0.00906780242919922	0		0.483602294921875	-2.448109130859375	0		-1.112165771484375	-0.14185986328125	0		-0.5845663452148437	-2.558316650390625	0		1.8019188232421874	-1.236373779296875	0		3.264263671875	-0.6161246948242187	0		4.70110595703125	0.15238980102539063	0		5.936025390625	0.3760540771484375	0		-0.47077496337890623	5.82896142578125	0		
0.016557703018188475	0.002608745098114014	0		0.5476172485351563	-2.460900146484375	0		-1.1000673828125	-0.15208218383789063	0		-0.6203970947265625	-2.555067138671875	0		1.8171099853515624	-1.2347034912109376	0		3.284470703125	-0.6145433349609375	0		4.706232421875	0.1440860595703125	0		5.948201171875	0.3527713317871094	0		-0.42125863647460937	5.84434619140625	0		
-0.0052227888107299805	0.0067264680862426755	0		0.48788726806640625	-2.44441259765625	0		-1.0918236083984374	-0.14523626708984375	0		-0.5843280029296875	-2.55851953125	0		1.8572589111328126	-1.2342694091796875	0		3.29332470703125	-0.6448363647460937	0		4.7072822265625	0.13083106994628907	0		5.937701171875	0.36984365844726563	0		-0.42090679931640623	5.84425341796875	0		
-0.009112391471862793	0.0026921210289001466	0		0.5477915649414062	-2.461114990234375	0		-1.0957181396484375	-0.14923497009277345	0		-0.5883017578125	-2.562534912109375	0		1.8124735107421874	-1.223947509765625	0		3.320432373046875	-0.647295166015625	0		4.71915087890625	0.10248018646240234	0		5.93417578125	0.3538932189941406	0		-0.43566546630859376	5.83434521484375	0		
-0.008988703727722168	0.002650295972824097	0		0.5119528198242187	-2.448808837890625	0		-1.09963037109375	-0.15219728088378906	0		-0.5682493286132813	-2.560760986328125	0		1.848490478515625	-1.230421875	0		3.3092470703125	-0.6753406982421875	0		4.71215576171875	0.09034346008300781	0		5.93426318359375	0.35345556640625	0		-0.4693952331542969	5.82866650390625	0		
0.013076830863952636	-5.81125020980835E-4	0		0.5369058227539063	-2.454090576171875	0		-1.09259033203125	-0.1572336883544922	0		-0.59634912109375	-2.57045751953125	0		1.8485418701171874	-1.2304970703125	0		3.30626806640625	-0.6804395141601562	0		4.71396875	0.062141902923583986	0		5.93655859375	0.3737643127441406	0		-0.4680898132324219	5.82766796875	0		
-0.008818066596984864	0.0026775119304656985	0		0.495875	-2.45465625	0		-1.1644783935546874	-0.15241650390625	0		-0.5854697265625	-2.5795146484375	0		1.8536387939453125	-1.223588623046875	0		3.32999365234375	-0.7117817993164063	0		4.70389013671875	0.04709442520141602	0		5.9343828125	0.3527124938964844	0		-0.4365952453613281	5.8463984375	0		
0.030167863845825194	-0.0036524579524993897	0		0.5258463745117188	-2.45291357421875	0		-1.0784700927734374	-0.15618704223632812	0		-0.5835018310546874	-2.577439208984375	0		1.8617431640625	-1.2136727294921874	0		3.351076416015625	-0.7060590209960937	0		4.72479638671875	0.03276352691650391	0		5.9302109375	0.3698344421386719	0		-0.43532284545898436	5.845478515625	0		
-0.00469982099533081	0.006824763774871826	0		0.5138383178710938	-2.44669482421875	0		-1.0924593505859375	-0.15688323974609375	0		-0.5676098022460937	-2.580466796875	0		1.8478780517578124	-1.1984869384765624	0		3.32086865234375	-0.725764404296875	0		4.7077001953125	0.02086796760559082	0		5.9265888671875	0.352414306640625	0		-0.43704248046875	5.8476318359375	0		
0.0011653920412063598	-0.006077469825744629	0		0.5106917114257813	-2.45152392578125	0		-1.10345361328125	-0.15556649780273438	0		-0.6107594604492188	-2.58483642578125	0		1.8478321533203126	-1.1983995361328126	0		3.347652099609375	-0.74401513671875	0		4.720419921875	-0.006290409088134765	0		5.92658837890625	0.3522882080078125	0		-0.4368134460449219	5.84780810546875	0		
